<?xml version="1.0" standalone="no"?>
<!DOCTYPE svg PUBLIC "-//W3C//DTD SVG 20010904//EN"
 "http://www.w3.org/TR/2001/REC-SVG-20010904/DTD/svg10.dtd">
<svg version="1.0" xmlns="http://www.w3.org/2000/svg"
 width="1080.000000pt" height="1080.000000pt" viewBox="0 0 1080.000000 1080.000000"
 preserveAspectRatio="xMidYMid meet">
<metadata>
Created by potrace 1.11, written by Peter Selinger 2001-2013
</metadata>
<g transform="translate(0.000000,1080.000000) scale(0.100000,-0.100000)"
fill="#000000" stroke="none">
<path d="M0 5400 l0 -5400 5400 0 5400 0 0 5400 0 5400 -5400 0 -5400 0 0
-5400z m6498 2208 c41 -12 63 -53 68 -127 3 -31 16 -256 29 -501 14 -245 37
-614 50 -820 14 -206 34 -523 45 -705 28 -467 29 -479 57 -489 26 -10 58 18
115 101 30 43 117 168 194 278 77 110 230 328 339 485 110 157 285 408 390
557 104 150 305 437 445 639 371 532 381 546 420 569 34 19 52 20 478 23 243
1 442 0 442 -4 0 -3 -31 -110 -69 -238 -178 -593 -695 -2423 -805 -2848 -73
-280 -63 -328 68 -328 121 -1 214 -34 242 -86 18 -33 18 -35 0 -69 -70 -129
-454 -245 -861 -261 -145 -6 -151 -5 -195 18 -25 14 -59 43 -77 66 -57 75 -55
148 13 417 108 427 382 1421 621 2250 202 702 189 653 177 665 -18 18 -49 -16
-176 -197 -69 -98 -235 -333 -369 -523 -134 -191 -311 -444 -394 -564 -82
-119 -173 -249 -201 -289 -28 -40 -113 -162 -189 -272 -122 -176 -434 -623
-712 -1020 -51 -71 -129 -184 -175 -250 -124 -178 -179 -225 -263 -225 -52 0
-90 40 -104 111 -15 75 -149 1566 -216 2399 -55 687 -55 694 -66 705 -22 22
-45 -16 -91 -151 -25 -76 -75 -229 -111 -339 -360 -1106 -792 -1974 -1245
-2505 -91 -106 -322 -333 -416 -409 -311 -248 -679 -417 -1051 -482 -176 -30
-449 -37 -586 -14 -193 32 -380 105 -544 213 -110 72 -261 229 -343 355 -159
245 -223 472 -223 795 0 248 41 429 140 619 176 334 468 533 806 550 183 9
300 -30 394 -133 71 -77 95 -144 96 -264 0 -84 -3 -101 -27 -146 -57 -108
-129 -147 -273 -148 -139 -1 -161 10 -265 136 -123 150 -182 167 -329 96 -194
-93 -326 -396 -308 -708 8 -152 54 -284 145 -417 146 -214 412 -376 706 -430
123 -23 400 -23 557 0 525 77 1014 360 1443 836 275 305 554 780 836 1421 141
321 407 1035 417 1120 5 43 3 49 -18 61 -35 19 -513 31 -769 19 -359 -18 -568
-49 -755 -113 -326 -111 -437 -226 -376 -387 27 -72 62 -95 182 -120 125 -27
189 -54 243 -101 68 -60 89 -113 84 -209 -8 -141 -71 -226 -206 -279 -64 -25
-159 -28 -223 -6 -244 85 -398 509 -314 864 33 140 135 311 247 417 285 269
690 382 1453 402 348 10 1363 3 1403 -10z"/>
</g>
</svg>
