<?xml version="1.0" encoding="utf-8"?>
<!-- Generator: Adobe Illustrator 20.0.0, SVG Export Plug-In . SVG Version: 6.00 Build 0)  -->
<svg version="1.1" id="Layer_1" xmlns="http://www.w3.org/2000/svg" xmlns:xlink="http://www.w3.org/1999/xlink" x="0px" y="0px"
	 viewBox="0 0 480 67" enable-background="new 0 0 480 67" xml:space="preserve">
<g>
	<path fill="#333333" d="M98.3,7.4c-0.8,2.5-1.6,5.4-2.5,8.6c-0.9,3.2-1.9,6.5-2.8,9.8c-0.9,3.3-1.9,6.6-2.8,9.8
		c-0.9,3.2-1.7,6.1-2.3,8.6c-0.4,1.6-0.2,2.4,0.7,2.4c1.5,0,2.4,0.2,3,0.6c0.5,0.4,0.5,0.9,0,1.5c-0.5,0.6-1.6,1.1-3.2,1.6
		c-1.6,0.5-3.9,0.9-6.7,1c-1,0.1-1.8-0.1-2.3-0.6c-0.5-0.5-0.8-0.9-0.8-1.3c-0.1-0.6,0-1.3,0.2-2.2c0.2-0.9,0.4-1.9,0.7-3
		c1.4-5.3,2.8-10.6,4.3-15.8c1.5-5.2,2.9-10.3,4.4-15.4c0.2-0.6,0.2-0.9,0-0.9c-0.2-0.1-0.3,0-0.5,0.2c0,0-0.4,0.6-1.2,1.6
		c-0.7,1-1.7,2.4-2.9,4c-1.2,1.6-2.5,3.5-4,5.6c-1.5,2.1-3,4.3-4.5,6.5c-1.5,2.2-3.1,4.4-4.6,6.6c-1.5,2.2-2.9,4.1-4.1,5.8
		c-1.2,1.7-2.2,3.1-3,4.3c-0.8,1.2-1.3,1.8-1.4,2c-0.7,1-1.5,1.5-2.2,1.5c-0.7,0-1.1-0.5-1.2-1.5c0-0.2-0.1-1.1-0.3-2.9
		c-0.2-1.7-0.3-3.9-0.6-6.4c-0.2-2.5-0.5-5.2-0.7-8.1c-0.3-2.9-0.5-5.6-0.7-8.2c-0.2-2.5-0.4-4.6-0.5-6.4c-0.2-1.7-0.2-2.7-0.2-2.8
		c0-0.5-0.1-0.7-0.3-0.7c-0.2,0-0.4,0.2-0.6,0.7c-0.3,0.9-0.7,2.1-1.2,3.6c-0.5,1.5-1,3.2-1.7,5.1c-0.7,1.9-1.4,3.9-2.3,6
		c-0.9,2.1-1.8,4.2-2.8,6.4c-1,2.1-2.1,4.2-3.4,6.3c-1.2,2-2.5,3.9-3.9,5.6c-1.3,1.6-2.8,3.1-4.3,4.5c-1.5,1.4-3.2,2.6-5,3.6
		c-1.8,1-3.7,1.8-5.8,2.4c-2.1,0.6-4.3,0.9-6.8,0.9c-1.8,0-3.5-0.3-5.3-1c-1.8-0.7-3.4-1.7-4.8-3c-1.4-1.3-2.6-3-3.5-4.9
		c-0.9-2-1.3-4.3-1.3-6.9c0-2.1,0.3-4,1-5.6c0.7-1.6,1.5-3,2.6-4.2c1.1-1.2,2.3-2,3.7-2.6c1.4-0.6,2.8-0.9,4.2-0.9
		c1.5,0,2.7,0.4,3.7,1.3c0.9,0.9,1.4,2,1.4,3.4c0,0.9-0.3,1.6-0.9,2.3c-0.6,0.7-1.5,1-2.8,1c-1,0-1.7-0.3-2.1-0.8s-0.8-1-1.2-1.4
		c-0.5-0.6-1-0.9-1.7-0.9c-0.6,0-1.2,0.2-1.8,0.5c-0.6,0.3-1.2,0.9-1.7,1.6c-0.5,0.7-0.9,1.6-1.2,2.6c-0.3,1-0.5,2.2-0.5,3.5
		c0,1.2,0.3,2.5,0.9,3.7c0.6,1.2,1.4,2.4,2.5,3.3c1.1,1,2.4,1.8,4,2.4c1.6,0.6,3.3,0.9,5.4,0.9c3.8,0,7.3-0.8,10.5-2.4
		c3.3-1.6,6.4-4,9.3-7.2c1.7-1.8,3.3-4,4.7-6.6c1.5-2.6,2.9-5.2,4.1-7.9c1.2-2.7,2.3-5.2,3.2-7.6c0.9-2.4,1.6-4.4,2.2-6
		c0.3-1,0.4-1.6,0.3-1.8c-0.2-0.2-0.6-0.4-1.3-0.4c-1,0-2.1,0-3.3-0.1c-1.2,0-2.4,0-3.7,0c-1.3,0-2.6,0.1-3.9,0.3
		c-1.3,0.1-2.6,0.3-3.9,0.6c-1.8,0.5-3.2,1-4.3,1.7c-1.1,0.7-1.7,1.4-1.7,2.3c0,0.4,0.1,0.8,0.4,1.3c0.2,0.5,0.9,0.9,2.1,1
		c1.3,0.2,2.2,0.6,2.8,1.2c0.6,0.6,0.9,1.2,0.9,1.8c0,1.4-0.4,2.4-1.3,3c-0.8,0.6-1.6,0.9-2.4,0.9c-0.9,0-1.7-0.3-2.3-0.8
		c-0.6-0.5-1.2-1.2-1.6-1.9c-0.4-0.8-0.7-1.6-0.9-2.5c-0.2-0.9-0.3-1.8-0.3-2.6c0-1.7,0.4-3.2,1.2-4.7c0.8-1.4,2-2.7,3.5-3.7
		c1.4-0.9,3-1.6,4.8-2.1c1.8-0.5,4-0.8,6.4-1c2.4-0.2,5.2-0.3,8.3-0.3c3.1,0,6.6,0,10.6,0c0.7,0,1.2,0.1,1.4,0.4
		c0.2,0.3,0.4,0.7,0.4,1.1c0,0.3,0,1.1,0.1,2.5c0.1,1.4,0.2,3.1,0.3,5c0.1,1.9,0.2,4,0.4,6.3c0.1,2.2,0.3,4.4,0.4,6.4
		c0.1,2,0.2,3.7,0.3,5.2c0.1,1.5,0.1,2.4,0.2,2.8c0,0.5,0.2,0.7,0.4,0.8c0.3,0,0.5-0.1,0.8-0.5L87.1,8.3c0.3-0.3,0.5-0.6,0.9-0.7
		c0.3-0.1,0.9-0.2,1.6-0.2H98.3z"/>
	<path fill="#333333" d="M127.6,22.7c0.5,0,0.6,0.3,0.5,0.8c-0.3,0.7-0.6,1.7-1.1,3c-0.4,1.3-0.9,2.6-1.4,4
		c-0.5,1.4-0.9,2.7-1.3,3.9c-0.4,1.2-0.7,2.1-0.8,2.6c-0.1,0.3-0.3,0.8-0.5,1.8c-0.3,0.9-0.5,1.9-0.8,2.9c-0.3,1-0.6,2-0.8,2.9
		c-0.2,0.9-0.4,1.4-0.4,1.7c0,0.5,0.3,0.8,0.8,0.8c0.3,0,0.5,0.2,0.9,0.5c0.3,0.3,0.4,0.7,0.3,1.2c-0.2,0.4-0.7,0.9-1.6,1.4
		c-0.9,0.5-2.5,0.9-4.7,1.2c-1,0.1-1.7-0.1-2.1-0.5c-0.4-0.5-0.6-1-0.6-1.5c0-0.2,0-0.5,0.1-0.8c0.1-0.3,0.2-0.7,0.4-1.3
		c0.2-0.6,0.4-1.4,0.7-2.4s0.8-2.3,1.3-3.9l-0.6-0.3c-0.6,1-1.4,2.1-2.2,3.3s-1.8,2.4-2.9,3.5c-1.1,1.1-2.2,2-3.5,2.8
		s-2.7,1.1-4.2,1.1c-0.4,0-0.9-0.1-1.4-0.4c-0.5-0.3-1-0.7-1.4-1.1s-0.8-1-1.1-1.6c-0.3-0.6-0.4-1.2-0.4-1.9c0-1.3,0.2-2.8,0.6-4.5
		c0.4-1.7,1-3.4,1.8-5.1c0.7-1.7,1.7-3.4,2.7-5c1.1-1.6,2.2-3.1,3.5-4.3c1.3-1.2,2.6-2.2,4-3c1.4-0.8,2.9-1.2,4.5-1.2
		c1.5,0,2.5,0.2,3.3,0.7c0.7,0.5,1.3,1,1.7,1.5l1-1.9c0.3-0.5,0.7-0.7,1.2-0.7H127.6z M106.4,43.9c0,0.7,0.1,1.2,0.4,1.5
		c0.3,0.3,0.6,0.4,1.2,0.4c0.4,0,1.1-0.4,2-1.3c0.9-0.9,1.8-2,2.7-3.2c0.9-1.2,1.8-2.4,2.6-3.7c0.8-1.2,1.4-2.2,1.7-2.8
		c0.4-0.9,0.7-1.8,1-2.9c0.3-1.1,0.4-2.2,0.4-3.3c0-0.7-0.3-1.4-0.9-2c-0.6-0.6-1.3-0.9-1.9-0.9c-1.6,0-3.2,1.5-4.8,4.4
		c-1.6,2.9-2.7,5.5-3.4,7.9C106.7,40.3,106.4,42.3,106.4,43.9z"/>
	<path fill="#333333" d="M130.3,50.4c-0.6,0-0.7-0.2-0.6-0.6l3.1-10.4c0.3-0.9,0.6-1.9,0.9-3.1c0.4-1.2,0.7-2.3,1-3.4
		c0.3-1.1,0.6-2.1,0.8-3c0.2-0.9,0.3-1.5,0.3-1.8c0-0.3-0.1-0.6-0.3-0.9c-0.2-0.2-0.5-0.4-0.8-0.4c-0.1,0-0.3-0.1-0.6-0.2
		c-0.3-0.1-0.5-0.3-0.4-0.6c0.1-0.3,0.5-0.7,1.3-1.3c0.8-0.5,2.2-1.2,4.4-2c0.6-0.2,1.1-0.3,1.5-0.1c0.4,0.1,0.8,0.3,1,0.6
		c0.3,0.3,0.4,0.6,0.6,1c0.1,0.4,0.2,0.7,0.2,1c0,0.6-0.3,1.6-0.8,3.1c-0.5,1.5-1.2,3.3-2,5.4l0.7,0.4c0.4-0.9,0.9-2,1.6-3.3
		c0.7-1.3,1.5-2.5,2.3-3.8c0.9-1.2,1.8-2.3,2.9-3.1c1.1-0.9,2.2-1.3,3.3-1.3c0.9,0,1.8,0.3,2.5,1c0.7,0.6,1.1,1.5,1.1,2.5
		c0,0.6-0.1,1.1-0.3,1.6c-0.2,0.5-0.4,1-0.7,1.3c-0.3,0.4-0.6,0.7-0.9,0.9c-0.3,0.2-0.6,0.3-0.9,0.3c-0.9,0-1.6-0.2-2.1-0.5
		c-0.3-0.2-0.5-0.3-0.8-0.5c-0.3-0.2-0.6-0.3-1-0.3c-0.5,0-1.1,0.3-1.7,0.8c-0.6,0.6-1.3,1.3-1.9,2.1c-0.6,0.8-1.3,1.7-1.8,2.7
		c-0.6,1-1,1.9-1.4,2.7c-0.3,0.8-0.7,1.6-1,2.6c-0.3,0.9-0.7,2-1.1,3.2l-2.1,6.5c-0.1,0.3-0.4,0.4-0.8,0.4H130.3z"/>
	<path fill="#333333" d="M169,24.9h6.5c0.3,0,0.4,0.2,0.3,0.6l-0.4,1.7c-0.1,0.4-0.4,0.6-0.8,0.6h-6.5l-5.3,14.1
		c-0.2,0.5-0.4,1.1-0.6,1.8c-0.2,0.7-0.3,1.2-0.3,1.6c0,0.3,0.1,0.6,0.4,0.9c0.2,0.2,0.6,0.4,1.1,0.4c0.2,0,0.5,0.1,0.9,0.2
		c0.4,0.1,0.7,0.2,0.9,0.4c0.3,0.2,0.4,0.4,0.4,0.7c0,0.3-0.3,0.6-0.8,0.9c-0.5,0.3-1.3,0.7-2.5,1.1c-1.1,0.4-2.7,0.8-4.8,1.3
		c-0.6,0.1-1,0.1-1.4,0c-0.4-0.1-0.7-0.3-1-0.6c-0.3-0.3-0.5-0.5-0.6-0.9c-0.2-0.3-0.2-0.6-0.2-0.9c0-0.6,0.1-1.3,0.2-2
		c0.1-0.7,0.3-1.3,0.5-2l5.8-17h-5c-0.4,0-0.6-0.2-0.4-0.7l0.4-1.7c0.1-0.3,0.4-0.4,0.7-0.4h5.3l3.5-9.4c0.1-0.3,0.3-0.6,0.5-0.7
		c0.2-0.1,0.8-0.2,1.6-0.2c1.2-0.1,2.2-0.1,3.1-0.1c0.9,0,1.6,0,2.2,0c0.2,0,0.4,0.1,0.5,0.4c0.1,0.3,0.1,0.5,0,0.7L169,24.9z"/>
	<path fill="#333333" d="M183.2,32.2l0.6,0.4c0.7-1.2,1.5-2.3,2.4-3.5c0.9-1.2,1.8-2.2,2.8-3.1c1-0.9,2.1-1.6,3.1-2.2
		c1.1-0.6,2.2-0.9,3.4-0.9c1.2,0,2.2,0.2,2.9,0.6c0.7,0.4,1.3,1,1.7,1.6c0.4,0.6,0.7,1.4,0.9,2.2c0.1,0.8,0.2,1.6,0.2,2.4
		c0,2.3-0.4,4.7-1.2,7.2c-0.8,2.5-1.8,4.8-2.9,6.8c-1.5,2.7-3.3,4.8-5.1,6.3c-1.9,1.5-4,2.3-6.3,2.3c-1.1,0-2.1-0.3-2.9-1
		c-0.8-0.7-1.2-1.7-1.2-3.1c0-0.8,0.2-1.6,0.7-2.2c0.5-0.7,1.2-1,2.2-1c0.9,0,1.5,0.3,1.9,0.8c0.4,0.5,0.6,1,0.7,1.6
		c0,0.6,0.1,1.2,0.3,1.6c0.1,0.4,0.5,0.7,0.9,0.7c0.3,0,0.7-0.2,1-0.7c0.3-0.4,0.6-1,0.9-1.7c0.3-0.7,0.5-1.5,0.8-2.4
		c0.3-0.9,0.5-1.8,0.8-2.7c0.5-1.8,1-3.8,1.4-5.9c0.4-2.1,0.7-4.1,0.7-5.8c0-1.8-0.6-2.8-1.9-2.8c-0.6,0-1.3,0.3-2,0.8
		c-0.7,0.6-1.5,1.2-2.2,2c-0.7,0.8-1.5,1.6-2.2,2.4s-1.3,1.6-1.7,2.1c-0.8,1.1-1.4,2.1-2,3.1c-0.6,1-1,1.9-1.3,2.6l-3.7,9
		c-0.2,0.3-0.5,0.4-1.1,0.4h-5.1c-0.6,0-0.9-0.3-0.6-0.8l15.9-42.7h6.7c0.5,0,0.8,0.2,0.8,0.6c0,0.4-0.2,1.2-0.7,2.2L183.2,32.2z"/>
	<path fill="#333333" d="M232.1,22.7c0.5,0,0.6,0.3,0.5,0.8c-0.3,0.7-0.6,1.7-1.1,3c-0.4,1.3-0.9,2.6-1.4,4
		c-0.5,1.4-0.9,2.7-1.3,3.9c-0.4,1.2-0.7,2.1-0.8,2.6c-0.1,0.3-0.3,0.8-0.5,1.8c-0.3,0.9-0.5,1.9-0.8,2.9c-0.3,1-0.6,2-0.8,2.9
		c-0.2,0.9-0.4,1.4-0.4,1.7c0,0.5,0.3,0.8,0.8,0.8c0.3,0,0.5,0.2,0.9,0.5c0.3,0.3,0.4,0.7,0.3,1.2c-0.2,0.4-0.7,0.9-1.6,1.4
		c-0.9,0.5-2.5,0.9-4.7,1.2c-1,0.1-1.7-0.1-2.1-0.5c-0.4-0.5-0.6-1-0.6-1.5c0-0.2,0-0.5,0.1-0.8c0.1-0.3,0.2-0.7,0.4-1.3
		c0.2-0.6,0.4-1.4,0.7-2.4s0.8-2.3,1.3-3.9l-0.6-0.3c-0.6,1-1.4,2.1-2.2,3.3s-1.8,2.4-2.9,3.5c-1.1,1.1-2.2,2-3.5,2.8
		s-2.7,1.1-4.2,1.1c-0.4,0-0.9-0.1-1.4-0.4c-0.5-0.3-1-0.7-1.4-1.1s-0.8-1-1.1-1.6c-0.3-0.6-0.4-1.2-0.4-1.9c0-1.3,0.2-2.8,0.6-4.5
		c0.4-1.7,1-3.4,1.8-5.1c0.7-1.7,1.7-3.4,2.7-5c1.1-1.6,2.2-3.1,3.5-4.3c1.3-1.2,2.6-2.2,4-3c1.4-0.8,2.9-1.2,4.5-1.2
		c1.5,0,2.5,0.2,3.3,0.7c0.7,0.5,1.3,1,1.7,1.5l1-1.9c0.3-0.5,0.7-0.7,1.2-0.7H232.1z M210.9,43.9c0,0.7,0.1,1.2,0.4,1.5
		c0.3,0.3,0.6,0.4,1.2,0.4c0.4,0,1.1-0.4,2-1.3c0.9-0.9,1.8-2,2.7-3.2c0.9-1.2,1.8-2.4,2.6-3.7c0.8-1.2,1.4-2.2,1.7-2.8
		c0.4-0.9,0.7-1.8,1-2.9c0.3-1.1,0.4-2.2,0.4-3.3c0-0.7-0.3-1.4-0.9-2c-0.6-0.6-1.3-0.9-1.9-0.9c-1.6,0-3.2,1.5-4.8,4.4
		c-1.6,2.9-2.7,5.5-3.4,7.9C211.2,40.3,210.9,42.3,210.9,43.9z"/>
	<path fill="#333333" d="M339.2,7.4c-0.8,2.5-1.6,5.4-2.5,8.6s-1.9,6.5-2.8,9.8c-0.9,3.3-1.9,6.6-2.8,9.8c-0.9,3.2-1.7,6.1-2.3,8.6
		c-0.4,1.6-0.2,2.4,0.7,2.4c1.5,0,2.4,0.2,3,0.6c0.5,0.4,0.5,0.9,0,1.5c-0.5,0.6-1.6,1.1-3.2,1.6c-1.6,0.5-3.9,0.9-6.7,1
		c-1,0.1-1.8-0.1-2.3-0.6c-0.5-0.5-0.8-0.9-0.8-1.3c-0.1-0.6,0-1.3,0.2-2.2c0.2-0.9,0.4-1.9,0.7-3c1.4-5.3,2.8-10.6,4.3-15.8
		c1.5-5.2,2.9-10.3,4.4-15.4c0.2-0.6,0.2-0.9,0-0.9c-0.2-0.1-0.3,0-0.5,0.2c0,0-0.4,0.6-1.2,1.6c-0.7,1-1.7,2.4-2.9,4
		c-1.2,1.6-2.5,3.5-4,5.6c-1.5,2.1-3,4.3-4.5,6.5s-3.1,4.4-4.6,6.6c-1.5,2.2-2.9,4.1-4.1,5.8c-1.2,1.7-2.2,3.1-3,4.3
		c-0.8,1.2-1.3,1.8-1.4,2c-0.7,1-1.5,1.5-2.2,1.5c-0.7,0-1.1-0.5-1.2-1.5c0-0.2-0.1-1.1-0.3-2.9c-0.2-1.7-0.3-3.9-0.6-6.4
		c-0.2-2.5-0.5-5.2-0.7-8.1c-0.3-2.9-0.5-5.6-0.7-8.2c-0.2-2.5-0.4-4.6-0.5-6.4c-0.2-1.7-0.2-2.7-0.2-2.8c0-0.5-0.1-0.7-0.3-0.7
		c-0.2,0-0.4,0.2-0.6,0.7c-0.3,0.9-0.7,2.1-1.2,3.6c-0.5,1.5-1,3.2-1.7,5.1c-0.7,1.9-1.4,3.9-2.3,6c-0.9,2.1-1.8,4.2-2.8,6.4
		c-1,2.1-2.1,4.2-3.4,6.3s-2.5,3.9-3.9,5.6c-1.3,1.6-2.8,3.1-4.3,4.5c-1.5,1.4-3.2,2.6-5,3.6c-1.8,1-3.7,1.8-5.8,2.4
		c-2.1,0.6-4.3,0.9-6.8,0.9c-1.8,0-3.5-0.3-5.3-1c-1.8-0.7-3.4-1.7-4.8-3s-2.6-3-3.5-4.9c-0.9-2-1.3-4.3-1.3-6.9c0-2.1,0.3-4,1-5.6
		c0.7-1.6,1.5-3,2.6-4.2c1.1-1.2,2.3-2,3.7-2.6c1.4-0.6,2.8-0.9,4.2-0.9c1.5,0,2.7,0.4,3.7,1.3c0.9,0.9,1.4,2,1.4,3.4
		c0,0.9-0.3,1.6-0.9,2.3c-0.6,0.7-1.5,1-2.8,1c-1,0-1.7-0.3-2.1-0.8s-0.8-1-1.2-1.4c-0.5-0.6-1-0.9-1.7-0.9c-0.6,0-1.2,0.2-1.8,0.5
		c-0.6,0.3-1.2,0.9-1.7,1.6c-0.5,0.7-0.9,1.6-1.2,2.6c-0.3,1-0.5,2.2-0.5,3.5c0,1.2,0.3,2.5,0.9,3.7c0.6,1.2,1.4,2.4,2.5,3.3
		c1.1,1,2.4,1.8,4,2.4c1.6,0.6,3.3,0.9,5.4,0.9c3.8,0,7.3-0.8,10.5-2.4c3.3-1.6,6.4-4,9.3-7.2c1.7-1.8,3.3-4,4.8-6.6
		c1.5-2.6,2.9-5.2,4.1-7.9c1.2-2.7,2.3-5.2,3.2-7.6c0.9-2.4,1.6-4.4,2.2-6c0.3-1,0.4-1.6,0.3-1.8c-0.2-0.2-0.6-0.4-1.3-0.4
		c-1,0-2.1,0-3.3-0.1c-1.2,0-2.4,0-3.7,0c-1.3,0-2.6,0.1-3.9,0.3c-1.3,0.1-2.6,0.3-3.9,0.6c-1.8,0.5-3.2,1-4.3,1.7
		c-1.1,0.7-1.7,1.4-1.7,2.3c0,0.4,0.1,0.8,0.4,1.3c0.2,0.5,0.9,0.9,2.1,1c1.3,0.2,2.2,0.6,2.8,1.2c0.6,0.6,0.9,1.2,0.9,1.8
		c0,1.4-0.4,2.4-1.3,3c-0.8,0.6-1.6,0.9-2.4,0.9c-0.9,0-1.7-0.3-2.3-0.8c-0.6-0.5-1.2-1.2-1.6-1.9c-0.4-0.8-0.7-1.6-0.9-2.5
		s-0.3-1.8-0.3-2.6c0-1.7,0.4-3.2,1.2-4.7c0.8-1.4,2-2.7,3.5-3.7c1.4-0.9,3-1.6,4.8-2.1c1.8-0.5,4-0.8,6.4-1s5.2-0.3,8.3-0.3
		c3.1,0,6.6,0,10.6,0c0.7,0,1.2,0.1,1.4,0.4c0.2,0.3,0.4,0.7,0.4,1.1c0,0.3,0,1.1,0.1,2.5c0.1,1.4,0.2,3.1,0.3,5
		c0.1,1.9,0.2,4,0.4,6.3c0.1,2.2,0.3,4.4,0.4,6.4c0.1,2,0.2,3.7,0.3,5.2c0.1,1.5,0.1,2.4,0.2,2.8c0,0.5,0.2,0.7,0.4,0.8
		c0.3,0,0.5-0.1,0.8-0.5l20.2-28.9c0.3-0.3,0.5-0.6,0.9-0.7c0.3-0.1,0.9-0.2,1.6-0.2H339.2z"/>
	<path fill="#333333" d="M368.5,22.7c0.5,0,0.6,0.3,0.5,0.8c-0.3,0.7-0.6,1.7-1.1,3c-0.4,1.3-0.9,2.6-1.4,4
		c-0.5,1.4-0.9,2.7-1.3,3.9c-0.4,1.2-0.7,2.1-0.8,2.6c-0.1,0.3-0.3,0.8-0.5,1.8c-0.3,0.9-0.5,1.9-0.8,2.9c-0.3,1-0.6,2-0.8,2.9
		s-0.4,1.4-0.4,1.7c0,0.5,0.3,0.8,0.8,0.8c0.3,0,0.5,0.2,0.9,0.5c0.3,0.3,0.4,0.7,0.3,1.2c-0.2,0.4-0.7,0.9-1.6,1.4
		c-0.9,0.5-2.5,0.9-4.7,1.2c-1,0.1-1.7-0.1-2.1-0.5c-0.4-0.5-0.6-1-0.6-1.5c0-0.2,0-0.5,0.1-0.8c0.1-0.3,0.2-0.7,0.4-1.3
		c0.2-0.6,0.4-1.4,0.7-2.4c0.3-1,0.8-2.3,1.3-3.9l-0.6-0.3c-0.6,1-1.4,2.1-2.2,3.3s-1.8,2.4-2.9,3.5c-1.1,1.1-2.2,2-3.5,2.8
		S345.5,51,344,51c-0.4,0-0.9-0.1-1.4-0.4c-0.5-0.3-1-0.7-1.4-1.1s-0.8-1-1.1-1.6c-0.3-0.6-0.4-1.2-0.4-1.9c0-1.3,0.2-2.8,0.6-4.5
		c0.4-1.7,1-3.4,1.8-5.1c0.7-1.7,1.7-3.4,2.7-5c1.1-1.6,2.2-3.1,3.5-4.3c1.3-1.2,2.6-2.2,4-3s2.9-1.2,4.5-1.2c1.5,0,2.5,0.2,3.3,0.7
		c0.7,0.5,1.3,1,1.7,1.5l1-1.9c0.3-0.5,0.7-0.7,1.2-0.7H368.5z M347.2,43.9c0,0.7,0.1,1.2,0.4,1.5c0.3,0.3,0.6,0.4,1.2,0.4
		c0.4,0,1.1-0.4,2-1.3c0.9-0.9,1.8-2,2.7-3.2c0.9-1.2,1.8-2.4,2.6-3.7c0.8-1.2,1.4-2.2,1.7-2.8c0.4-0.9,0.7-1.8,1-2.9
		c0.3-1.1,0.4-2.2,0.4-3.3c0-0.7-0.3-1.4-0.9-2c-0.6-0.6-1.3-0.9-1.9-0.9c-1.6,0-3.2,1.5-4.8,4.4c-1.6,2.9-2.7,5.5-3.4,7.9
		C347.6,40.3,347.2,42.3,347.2,43.9z"/>
	<path fill="#333333" d="M402.4,6.9c0.5,0,0.8,0.1,0.9,0.4c0.1,0.3,0.1,0.6,0,0.9c-0.1,0.3-0.3,1-0.7,2.1c-0.4,1.1-0.8,2.4-1.3,4
		c-0.5,1.6-1.1,3.4-1.7,5.3c-0.6,2-1.3,4-1.9,6.1c-0.6,2.1-1.3,4.1-1.9,6.1c-0.6,2-1.2,3.9-1.7,5.6c-0.5,1.7-0.9,3.2-1.3,4.4
		c-0.3,1.2-0.6,2.1-0.7,2.6c-0.2,0.9-0.3,1.6-0.3,2.1c0,0.5,0.3,0.7,0.7,0.7c0.3,0,0.6,0.1,1,0.3c0.4,0.2,0.5,0.5,0.4,0.8
		c-0.2,0.4-0.7,0.8-1.7,1.3c-1,0.5-2.8,1-5.2,1.5c-0.8,0.2-1.4,0-1.8-0.4c-0.4-0.4-0.6-0.9-0.6-1.5c0-0.9,0.2-2.1,0.7-3.6
		c0.5-1.5,1-3.2,1.6-5l-0.8-0.4c-0.8,1.2-1.6,2.5-2.5,3.8c-0.9,1.3-1.8,2.5-2.8,3.5c-1,1-2.1,1.9-3.2,2.6c-1.1,0.7-2.3,1-3.6,1
		c-0.8,0-1.5-0.2-2.2-0.6c-0.6-0.4-1.1-0.9-1.6-1.5c-0.4-0.6-0.8-1.3-1-2c-0.2-0.7-0.4-1.4-0.4-2c0-1,0.1-2.2,0.4-3.5
		c0.3-1.3,0.7-2.7,1.3-4.2c0.6-1.5,1.4-3,2.3-4.6c0.9-1.5,2.1-3,3.3-4.5c0.5-0.5,1-1.1,1.7-1.7c0.7-0.6,1.4-1.2,2.2-1.7
		c0.8-0.5,1.7-1,2.7-1.3c1-0.4,2-0.5,3.1-0.5c0.9,0,1.8,0.2,2.7,0.5c0.9,0.3,1.6,0.9,2.2,1.5l4.9-18.2H402.4z M388.7,29.5
		c0-1.2-0.3-2.2-0.8-3s-1.3-1.2-2.4-1.2c-0.6,0-1.2,0.4-1.8,1.1c-0.7,0.7-1.3,1.6-2,2.8c-0.6,1.1-1.3,2.4-1.9,3.8
		c-0.6,1.4-1.1,2.8-1.6,4.2s-0.8,2.7-1.1,4c-0.3,1.2-0.4,2.3-0.4,3.1c0,0.8,0.1,1.3,0.4,1.7s0.7,0.5,1.1,0.5c0.3,0,0.7-0.2,1.2-0.7
		c0.5-0.4,1-1,1.6-1.8c0.6-0.7,1.2-1.5,1.8-2.4c0.6-0.9,1.2-1.7,1.8-2.6c0.4-0.6,0.9-1.4,1.4-2.2c0.5-0.8,0.9-1.7,1.3-2.5
		c0.4-0.9,0.7-1.7,1-2.5C388.6,30.9,388.7,30.2,388.7,29.5z"/>
	<path fill="#333333" d="M420.3,44c0.2,0.2,0.3,0.4,0.1,0.6c-0.3,0.6-0.8,1.3-1.5,2c-0.7,0.7-1.6,1.4-2.7,2.1
		c-1,0.7-2.3,1.2-3.6,1.7c-1.4,0.4-2.8,0.7-4.4,0.7c-2.2,0-4-0.6-5.4-1.9c-1.4-1.2-2.1-3-2.1-5.3c0-1.2,0.1-2.5,0.4-3.9
		c0.3-1.4,0.7-2.8,1.3-4.3c0.6-1.5,1.4-2.9,2.4-4.3c1-1.4,2.2-2.7,3.6-3.9c1.6-1.4,3.3-2.5,5.1-3.3c1.8-0.8,3.7-1.2,5.6-1.2
		c1.8,0,3.1,0.4,3.9,1.3c0.8,0.9,1.2,1.9,1.2,3.1c0,1.8-0.5,3.4-1.5,4.7c-1,1.3-2.5,2.6-4.3,3.6c-1.8,1-3.5,1.7-5.1,2.1
		s-3.1,0.7-4.3,0.7c-0.1,0.3-0.2,0.8-0.4,1.6s-0.2,1.6-0.2,2.5c0,1.1,0.3,2.1,0.9,2.9c0.6,0.8,1.5,1.3,2.6,1.3c1.6,0,3-0.4,4.1-1.1
		c1.2-0.7,2.1-1.5,2.8-2.3c0.2-0.3,0.3-0.3,0.5-0.2L420.3,44z M409.4,36.2c0.6,0,1.4-0.2,2.6-0.6c1.2-0.4,2.3-1.1,3.2-2
		c0.5-0.5,1-1.2,1.4-2.2c0.4-1,0.6-2,0.6-3.1c0-0.5-0.1-1-0.3-1.5c-0.2-0.5-0.7-0.7-1.4-0.7c-0.6,0-1.2,0.3-1.9,1s-1.2,1.5-1.8,2.5
		c-0.6,1-1,2.1-1.5,3.3S409.6,35.2,409.4,36.2z"/>
	<path fill="#333333" d="M448.4,47c0.8,0,1.1,0.2,1.1,0.6c0,0.4-0.4,0.9-1,1.4c-0.6,0.5-1.5,1-2.6,1.4c-1.1,0.4-2.4,0.6-3.9,0.6
		c-1,0-1.6-0.2-2-0.6s-0.5-0.8-0.5-1.3c0-0.3,0.1-0.7,0.2-1.3c0.1-0.5,0.4-1.3,0.7-2.2c0.3-0.9,0.7-2.1,1.2-3.5c0.5-1.4,1-3,1.7-5
		l1.7-5.1c0.3-0.9,0.5-1.6,0.7-2.1c0.2-0.6,0.3-1.1,0.3-1.4c0-0.6-0.3-0.8-0.8-0.8c-0.1,0-0.3-0.1-0.6-0.2c-0.3-0.1-0.5-0.3-0.6-0.5
		c-0.2-0.2-0.2-0.5-0.2-0.8c0-0.3,0.3-0.6,0.8-1c0.5-0.4,1.3-0.7,2.3-1.1c1-0.4,2.5-0.7,4.4-1.1c1-0.2,1.7,0,2.2,0.5
		c0.5,0.6,0.8,1.2,0.8,1.8c0,0.7-0.2,1.6-0.5,2.7c-0.4,1-0.9,2.5-1.5,4.4l-3.5,9.8c-0.4,1.2-0.7,2.1-0.8,2.6c-0.1,0.5-0.2,1-0.2,1.3
		c0,0.2,0.1,0.4,0.2,0.6C447.8,46.9,448,47,448.4,47z M451.8,8.7c1.5,0,2.7,0.4,3.4,1.1c0.7,0.7,1.1,1.6,1.1,2.5
		c0,0.5-0.1,1-0.4,1.5c-0.2,0.5-0.6,0.9-1,1.3c-0.4,0.4-0.9,0.7-1.4,1c-0.5,0.3-1.1,0.4-1.7,0.4c-1.2,0-2.2-0.3-3-1
		c-0.7-0.7-1.1-1.6-1.1-2.9c0-1,0.4-1.9,1.2-2.7C449.7,9.1,450.7,8.7,451.8,8.7z"/>
	<path fill="#333333" d="M470.5,24.9h6.5c0.3,0,0.4,0.2,0.3,0.6l-0.4,1.7c-0.1,0.4-0.4,0.6-0.8,0.6h-6.5l-5.3,14.1
		c-0.2,0.5-0.4,1.1-0.6,1.8c-0.2,0.7-0.3,1.2-0.3,1.6c0,0.3,0.1,0.6,0.4,0.9c0.2,0.2,0.6,0.4,1.1,0.4c0.2,0,0.5,0.1,0.9,0.2
		c0.4,0.1,0.7,0.2,0.9,0.4c0.3,0.2,0.4,0.4,0.4,0.7c0,0.3-0.3,0.6-0.8,0.9c-0.5,0.3-1.3,0.7-2.5,1.1s-2.7,0.8-4.8,1.3
		c-0.6,0.1-1,0.1-1.4,0c-0.4-0.1-0.7-0.3-1-0.6c-0.3-0.3-0.5-0.5-0.6-0.9c-0.2-0.3-0.2-0.6-0.2-0.9c0-0.6,0.1-1.3,0.2-2
		c0.1-0.7,0.3-1.3,0.5-2l5.8-17h-5c-0.4,0-0.6-0.2-0.4-0.7l0.4-1.7c0.1-0.3,0.4-0.4,0.7-0.4h5.3l3.5-9.4c0.1-0.3,0.3-0.6,0.5-0.7
		c0.2-0.1,0.8-0.2,1.6-0.2c1.2-0.1,2.2-0.1,3.1-0.1c0.9,0,1.6,0,2.2,0c0.2,0,0.4,0.1,0.5,0.4c0.1,0.3,0.1,0.5,0,0.7L470.5,24.9z"/>
</g>
</svg>
